<?xml version="1.0" encoding="utf-8"?>
<svg width="24px" height="24px" viewBox="0 0 24 24" xmlns="http://www.w3.org/2000/svg" xmlns:xlink="http://www.w3.org/1999/xlink" id="icon">
  <path fill="currentColor" d="M12,2 C6.477,2 2,6.477 2,12 C2,16.418 4.865,20.166 8.839,21.65 C9.339,21.752 9.52,21.424 9.52,21.144 C9.52,20.897 9.512,20.142 9.507,19.273 C6.726,19.893 6.139,17.819 6.139,17.819 C5.684,16.634 5.029,16.319 5.029,16.319 C4.122,15.683 5.097,15.696 5.097,15.696 C6.101,15.768 6.63,16.753 6.63,16.753 C7.521,18.32 8.97,17.867 9.54,17.605 C9.63,16.942 9.889,16.49 10.175,16.234 C7.954,15.975 5.62,15.094 5.62,11.285 C5.62,10.165 6.009,9.251 6.649,8.533 C6.546,8.274 6.203,7.231 6.747,5.819 C6.747,5.819 7.587,5.544 9.496,6.87 C10.295,6.643 11.15,6.529 12,6.525 C12.85,6.529 13.705,6.643 14.504,6.87 C16.413,5.544 17.253,5.819 17.253,5.819 C17.797,7.231 17.454,8.274 17.351,8.533 C17.991,9.251 18.38,10.165 18.38,11.285 C18.38,15.104 16.046,15.971 13.82,16.224 C14.18,16.542 14.5,17.166 14.5,18.122 C14.5,19.494 14.488,20.798 14.488,21.144 C14.488,21.427 14.665,21.758 15.175,21.65 C19.135,20.162 22,16.418 22,12 C22,6.477 17.523,2 12,2"/>
</svg>