<?xml version="1.0"?>
<svg xmlns="http://www.w3.org/2000/svg" viewBox="0 0 64 64" width="64" height="64" preserveAspectRatio="xMidYMid meet">
  <g id="icon" transform="translate(0, 5)">
    <path d="M57 7H7C3.19 7 0 10.19 0 14v28c0 3.81 3.19 7 7 7h50c3.81 0 7-3.19 7-7V14C64 10.19 60.81 7 57 7zM58.67 42c0 0.98-0.8 1.78-1.78 1.78H7.11c-0.98 0-1.78-0.8-1.78-1.78V14c0-0.98 0.8-1.78 1.78-1.78h49.78c0.98 0 1.78 0.8 1.78 1.78V42zM15.56 16.89h-2.67c-0.74 0-1.33 0.59-1.33 1.33v2.67c0 0.74 0.59 1.33 1.33 1.33h2.67c0.74 0 1.33-0.59 1.33-1.33v-2.67C16.89 17.48 16.3 16.89 15.56 16.89zM21.78 22.22h2.67c0.74 0 1.33-0.59 1.33-1.33v-2.67c0-0.74-0.59-1.33-1.33-1.33h-2.67c-0.74 0-1.33 0.59-1.33 1.33v2.67C20.44 21.63 21.04 22.22 21.78 22.22zM30.67 22.22h2.67c0.74 0 1.33-0.59 1.33-1.33v-2.67c0-0.74-0.59-1.33-1.33-1.33h-2.67c-0.74 0-1.33 0.59-1.33 1.33v2.67C29.33 21.63 29.93 22.22 30.67 22.22zM39.56 22.22h2.67c0.74 0 1.33-0.59 1.33-1.33v-2.67c0-0.74-0.59-1.33-1.33-1.33h-2.67c-0.74 0-1.33 0.59-1.33 1.33v2.67C38.22 21.63 38.81 22.22 39.56 22.22zM51.11 16.89h-2.67c-0.74 0-1.33 0.59-1.33 1.33v2.67c0 0.74 0.59 1.33 1.33 1.33h2.67c0.74 0 1.33-0.59 1.33-1.33v-2.67C52.44 17.48 51.85 16.89 51.11 16.89zM15.56 25.78h-2.67c-0.74 0-1.33 0.59-1.33 1.33v2.67c0 0.74 0.59 1.33 1.33 1.33h2.67c0.74 0 1.33-0.59 1.33-1.33v-2.67C16.89 26.37 16.3 25.78 15.56 25.78zM21.78 31.11h2.67c0.74 0 1.33-0.59 1.33-1.33v-2.67c0-0.74-0.59-1.33-1.33-1.33h-2.67c-0.74 0-1.33 0.59-1.33 1.33v2.67C20.44 30.52 21.04 31.11 21.78 31.11zM30.67 31.11h2.67c0.74 0 1.33-0.59 1.33-1.33v-2.67c0-0.74-0.59-1.33-1.33-1.33h-2.67c-0.74 0-1.33 0.59-1.33 1.33v2.67C29.33 30.52 29.93 31.11 30.67 31.11zM39.56 31.11h2.67c0.74 0 1.33-0.59 1.33-1.33v-2.67c0-0.74-0.59-1.33-1.33-1.33h-2.67c-0.74 0-1.33 0.59-1.33 1.33v2.67C38.22 30.52 38.81 31.11 39.56 31.11zM51.11 25.78h-2.67c-0.74 0-1.33 0.59-1.33 1.33v2.67c0 0.74 0.59 1.33 1.33 1.33h2.67c0.74 0 1.33-0.59 1.33-1.33v-2.67C52.44 26.37 51.85 25.78 51.11 25.78zM44.44 35.56H19.56C18.57 35.56 17.78 36.35 17.78 37.33V39.11c0 0.98 0.79 1.78 1.78 1.78h24.89c0.98 0 1.78-0.79 1.78-1.78v-1.78C46.22 36.35 45.43 35.56 44.44 35.56z"/>
  </g>
</svg>
