<?xml version="1.0" standalone="no"?>
<!DOCTYPE svg PUBLIC "-//W3C//DTD SVG 20010904//EN"
 "http://www.w3.org/TR/2001/REC-SVG-20010904/DTD/svg10.dtd">
<svg version="1.0" xmlns="http://www.w3.org/2000/svg"
 width="64" height="64" viewBox="0 0 64 64"
 preserveAspectRatio="xMidYMid meet">

<g transform="translate(0.000000,64.000000) scale(0.012500,-0.012500)"
fill="currentColor" stroke="none" id="icon">
<path transform="translate(0, -200)" d="M1380 4789 c-37 -15 -78 -58 -89 -93 -15 -44 -174 -1974 -166 -2013
8 -41 50 -92 92 -109 24 -11 95 -14 288 -14 l255 0 0 -159 0 -159 -109 -4
c-118 -3 -141 -12 -185 -72 -21 -27 -21 -36 -21 -726 0 -690 0 -699 21 -726
39 -53 71 -69 134 -69 63 0 95 16 134 69 18 23 22 45 24 137 l4 109 158 0 159
0 3 -269 c3 -254 4 -271 24 -297 11 -15 33 -37 48 -48 27 -20 39 -21 406 -21
367 0 379 1 406 21 15 11 37 33 48 48 20 26 21 43 24 297 l3 269 159 0 158 0
4 -109 c2 -92 6 -114 24 -137 39 -53 71 -69 134 -69 63 0 95 16 134 69 21 27
21 36 21 726 0 690 0 699 -21 726 -44 60 -67 69 -185 72 l-109 4 0 159 0 159
255 0 c193 0 264 3 288 14 42 17 84 68 92 109 8 39 -151 1969 -166 2013 -11
36 -53 79 -92 93 -38 15 -2321 14 -2357 0z m2151 -311 c0 -2 31 -362 68 -800
l67 -798 -1106 0 -1106 0 67 798 c37 438 68 798 68 800 1 1 438 2 971 2 534 0
970 -1 971 -2z m-491 -2078 l0 -160 -480 0 -480 0 0 160 0 160 480 0 480 0 0
-160z m320 -800 l0 -320 -800 0 -800 0 0 320 0 320 800 0 800 0 0 -320z m-640
-800 l0 -160 -160 0 -160 0 0 160 0 160 160 0 160 0 0 -160z"/>
</g>
</svg>