<?xml version="1.0" ?><!DOCTYPE svg  PUBLIC '-//W3C//DTD SVG 1.1//EN'  'http://www.w3.org/Graphics/SVG/1.1/DTD/svg11.dtd'><svg xmlns="http://www.w3.org/2000/svg" viewBox="0 0 64 64" width="64" height="64">
  <g id="icon">
    <path d="M60.333,22.5H46.5v-6.834h2.167c0.828,0,1.5-0.671,1.5-1.5s-0.672-1.5-1.5-1.5h-7.334c-0.828,0-1.5,0.671-1.5,1.5  s0.672,1.5,1.5,1.5H43.5V22.5H3.667c-0.829,0-1.5,0.671-1.5,1.5v16c0,0.828,0.671,1.5,1.5,1.5H43.5v6.834h-2.167  c-0.828,0-1.5,0.672-1.5,1.5s0.672,1.5,1.5,1.5h7.334c0.828,0,1.5-0.672,1.5-1.5s-0.672-1.5-1.5-1.5H46.5V41.5h13.833  c0.828,0,1.5-0.672,1.5-1.5V24C61.833,23.171,61.161,22.5,60.333,22.5z M5.167,38.5v-13H43.5v13H5.167z M58.833,38.5H46.5v-13  h12.333V38.5z"/>
    <path d="M12.417,27.584C9.981,27.584,8,29.565,8,32c0,2.435,1.981,4.416,4.417,4.416s4.417-1.981,4.417-4.416  C16.833,29.565,14.852,27.584,12.417,27.584z M12.417,33.416C11.635,33.416,11,32.781,11,32s0.635-1.416,1.417-1.416  s1.417,0.635,1.417,1.416S13.198,33.416,12.417,33.416z"/>
    <path d="M36.082,27.584c-2.435,0-4.416,1.981-4.416,4.416c0,2.435,1.981,4.416,4.416,4.416c2.436,0,4.417-1.981,4.417-4.416  C40.499,29.565,38.518,27.584,36.082,27.584z M36.082,33.416c-0.781,0-1.416-0.635-1.416-1.416s0.635-1.416,1.416-1.416  s1.417,0.635,1.417,1.416S36.863,33.416,36.082,33.416z"/>
    <path d="M24.249,27.584c-2.435,0-4.416,1.981-4.416,4.416c0,2.435,1.981,4.416,4.416,4.416c2.436,0,4.417-1.981,4.417-4.416  C28.666,29.565,26.685,27.584,24.249,27.584z M24.249,33.416c-0.781,0-1.416-0.635-1.416-1.416s0.635-1.416,1.416-1.416  c0.781,0,1.417,0.635,1.417,1.416S25.03,33.416,24.249,33.416z"/>
  </g>
</svg>