<?xml version="1.0" standalone="no"?>
<!DOCTYPE svg PUBLIC "-//W3C//DTD SVG 20010904//EN"
 "http://www.w3.org/TR/2001/REC-SVG-20010904/DTD/svg10.dtd">
<svg version="1.0" xmlns="http://www.w3.org/2000/svg"
 width="512.000000pt" height="512.000000pt" viewBox="0 0 512.000000 512.000000"
 preserveAspectRatio="xMidYMid meet">

<g transform="translate(0.000000,512.000000) scale(0.100000,-0.100000)"
fill="#D43C33" stroke="none">
<path d="M2650 4849 c-25 -5 -62 -16 -82 -24 -35 -13 -1220 -745 -1243 -766
-6 -6 291 -310 805 -824 l815 -815 -103 0 -102 0 0 65 0 65 -180 0 -180 0 0
-65 0 -65 -120 0 -120 0 0 -325 0 -325 -309 0 -308 0 -107 -537 c-59 -296
-110 -548 -113 -560 l-5 -23 531 0 531 0 1 -92 c0 -134 30 -317 54 -334 14
-10 55 -14 152 -14 127 0 133 1 147 23 20 30 46 218 46 327 l0 90 530 0 530 0
-5 23 c-11 47 -215 1072 -215 1082 0 5 108 -98 240 -230 131 -131 241 -237
243 -235 3 3 125 335 271 738 180 495 270 757 278 805 9 60 8 86 -5 151 -33
160 9 112 -871 994 -866 868 -843 847 -975 872 -61 11 -68 11 -131 -1z m185
-143 c73 -35 1602 -1567 1640 -1643 36 -73 49 -153 37 -222 -6 -31 -116 -345
-244 -698 l-234 -642 -1264 1264 c-695 695 -1262 1266 -1260 1269 14 12 1080
671 1105 682 51 23 163 17 220 -10z m-215 -2606 l0 -330 -60 0 -60 0 0 330 0
330 60 0 60 0 0 -330z m670 -25 l305 -305 -308 0 -307 0 0 305 c0 168 1 305 3
305 1 0 139 -137 307 -305z m-910 -40 l0 -265 -60 0 -60 0 0 265 0 265 60 0
60 0 0 -265z m480 0 l0 -265 -60 0 -60 0 0 265 0 265 60 0 60 0 0 -265z m724
-817 c47 -238 86 -436 86 -440 0 -5 -499 -8 -1110 -8 -610 0 -1110 3 -1110 8
0 4 39 202 86 440 l87 432 937 0 937 0 87 -432z m-944 -653 c0 -46 -5 -118
-11 -160 l-11 -75 -57 0 -57 0 -12 89 c-7 48 -12 120 -12 160 l0 71 80 0 80 0
0 -85z"/>
</g>
</svg>
